barebones-pedaling
version=1
nRows=7
nColumns=49
inDegrees=yes
endheader
time	/jointset/bb/crank_angle/value	/jointset/bb/crank_angle/speed	/jointset/spindle/pedal_angle_r/value	/jointset/spindle/pedal_angle_r/speed	/jointset/ground_pelvis/pelvis_tilt/value	/jointset/ground_pelvis/pelvis_tilt/speed	/jointset/ground_pelvis/pelvis_list/value	/jointset/ground_pelvis/pelvis_list/speed	/jointset/ground_pelvis/pelvis_rotation/value	/jointset/ground_pelvis/pelvis_rotation/speed	/jointset/ground_pelvis/pelvis_tx/value	/jointset/ground_pelvis/pelvis_tx/speed	/jointset/ground_pelvis/pelvis_ty/value	/jointset/ground_pelvis/pelvis_ty/speed	/jointset/ground_pelvis/pelvis_tz/value	/jointset/ground_pelvis/pelvis_tz/speed	/jointset/hip_r/hip_angle_r/value	/jointset/hip_r/hip_angle_r/speed	/jointset/hip_r/hip_adduction_r/value	/jointset/hip_r/hip_adduction_r/speed	/jointset/hip_r/hip_rotation_r/value	/jointset/hip_r/hip_rotation_r/speed	/jointset/knee_r/knee_angle_r/value	/jointset/knee_r/knee_angle_r/speed	/jointset/knee_r/tib_tx_r/value	/jointset/knee_r/tib_tx_r/speed	/jointset/knee_r/tib_ty_r/value	/jointset/knee_r/tib_ty_r/speed	/jointset/tib_pat_r/pat_angle_r/value	/jointset/tib_pat_r/pat_angle_r/speed	/jointset/tib_pat_r/pat_tx_r/value	/jointset/tib_pat_r/pat_tx_r/speed	/jointset/tib_pat_r/pat_ty_r/value	/jointset/tib_pat_r/pat_ty_r/speed	/jointset/ankle_r/ankle_angle_r/value	/jointset/ankle_r/ankle_angle_r/speed	/jointset/subtalar_r/subtalar_angle_r/value	/jointset/subtalar_r/subtalar_angle_r/speed	/jointset/mtp_r/mtp_angle_r/value	/jointset/mtp_r/mtp_angle_r/speed	/forceset/bifemlh_r/activation	/forceset/bifemlh_r/fiber_length	/forceset/bifemsh_r/activation	/forceset/bifemsh_r/fiber_length	/forceset/glut_max2_r/activation	/forceset/glut_max2_r/fiber_length	/forceset/vas_int_r/activation	/forceset/vas_int_r/fiber_length
      1.11850374	   -336.55039362	   -279.20648414	    321.67621466	    358.06899207	     -0.00000000	     -0.00000000	      0.00000000	     -0.00000000	      0.00000000	      0.00000000	     -0.10000000	      0.00000000	     -0.05000000	      0.00000000	      0.00000000	      0.00000000	     76.82175956	     80.84807442	      4.02943016	     -0.03072261	     -4.34509552	     -0.35962492	   -120.40685707	     -3.18361255	     -0.00390980	     -0.00120434	     -0.49616690	     -0.00100121	     17.64967769	     -0.00270694	      0.01923223	     -0.00163128	     -0.02464355	     -0.00026589	     29.45269782	      1.23203647	     -0.00000000	      0.00000000	      0.00000000	      0.00000000	      0.05000000	      0.10000000	      0.05000000	      0.10000000	      0.05000000	      0.10000000	      0.05000000	      0.10000000
      1.14342325	   -343.00089370	   -238.82770468	    329.98135922	    308.42281803	     -0.00000000	     -0.00000000	      0.00000000	      0.00000000	      0.00000000	      0.00000000	     -0.10000000	     -0.00000000	     -0.05000000	     -0.00000000	     -0.00000000	     -0.00000000	     78.59196257	     61.63795984	      4.03073654	      0.12308624	     -4.32985290	      1.43259686	   -120.27171551	     12.71647904	     -0.00385867	      0.00481057	     -0.49612440	      0.00399917	     17.64979260	      0.01081248	      0.01930148	      0.00651590	     -0.02463226	      0.00106207	     29.40055821	     -4.89453546	     -0.00000000	     -0.00000000	      0.00000000	      0.00000000	      0.05000000	      0.10000000	      0.05000000	      0.10000000	      0.05000000	      0.10000000	      0.05000000	      0.10000000
      1.16834276	   -348.47144519	   -200.65240916	    337.05462857	    259.60295399	     -0.00000000	     -0.00000000	      0.00000000	     -0.00000000	      0.00000000	      0.00000000	     -0.10000000	      0.00000000	     -0.05000000	      0.00000000	     -0.00000000	     -0.00000000	     79.91800272	     45.32865885	      4.03501365	      0.21023979	     -4.28051732	      2.40644454	   -119.83187468	     21.54547082	     -0.00369228	      0.00811833	     -0.49598607	      0.00678410	     17.65016658	      0.01731793	      0.01952685	      0.01102167	     -0.02459553	      0.00179634	     29.23274958	     -8.14967490	     -0.00000000	      0.00000000	      0.00000000	      0.00000000	      0.05000000	      0.10000000	      0.05000000	      0.10000000	      0.05000000	      0.10000000	      0.05000000	      0.10000000
      1.20487237	   -354.85890152	   -150.37680890	    345.31412284	    194.21313435	     -0.00000000	     -0.00000000	      0.00000000	     -0.00000000	     -0.00000000	     -0.00000000	     -0.10000000	      0.00000000	     -0.05000000	     -0.00000000	     -0.00000000	      0.00000000	     81.22608114	     27.47389501	      4.04368010	      0.25027966	     -4.18269708	      2.78719845	   -118.94867233	     25.37688037	     -0.00336294	      0.00936374	     -0.49570709	      0.00804093	     17.65076558	      0.01394828	      0.01997671	      0.01286979	     -0.02452223	      0.00209598	     28.90435706	     -9.27398245	     -0.00000000	     -0.00000000	      0.00000000	     -0.00000000	      0.05000000	      0.10000000	      0.05000000	      0.10000000	      0.05000000	      0.10000000	      0.05000000	      0.10000000
      1.23292197	   -358.60641226	   -117.77128342	    350.14810410	    151.70080422	     -0.00000000	      0.00000000	      0.00000000	      0.00000000	      0.00000000	      0.00000000	     -0.10000000	     -0.00000000	     -0.05000000	      0.00000000	     -0.00000000	     -0.00000000	     81.85924320	     18.24799344	      4.05058531	      0.23784771	     -4.10654625	      2.59825962	   -118.25082683	     23.96487933	     -0.00310759	      0.00869545	     -0.49548544	      0.00763007	     17.65107551	      0.00806549	      0.02032942	      0.01207084	     -0.02446482	      0.00196397	     28.65275431	     -8.52356896	     -0.00000000	     -0.00000000	     -0.00000000	     -0.00000000	      0.05000000	      0.10000000	      0.05000000	      0.10000000	      0.05000000	      0.10000000	      0.05000000	      0.10000000
      1.26097156	   -361.51961730	    -90.89314182	    353.89565915	    116.76088224	     -0.00000000	     -0.00000000	      0.00000000	      0.00000000	      0.00000000	      0.00000000	     -0.10000000	      0.00000000	     -0.05000000	      0.00000000	     -0.00000000	     -0.00000000	     82.27791639	     12.03046388	      4.05686357	      0.20808871	     -4.03850691	      2.23773277	   -117.61965595	     20.87770006	     -0.00288032	      0.00745968	     -0.49528406	      0.00667524	     17.65122469	      0.00280801	      0.02064635	      0.01045098	     -0.02441328	      0.00169843	     28.43099019	     -7.24596271	     -0.00000000	     -0.00000000	     -0.00000000	      0.00000000	      0.05000000	      0.10000000	      0.05000000	      0.10000000	      0.05000000	      0.10000000	      0.05000000	      0.10000000
      1.28902116	   -363.75644725	    -69.45223518	    356.76566572	     89.00213194	     -0.00000000	      0.00000000	      0.00000000	      0.00000000	      0.00000000	      0.00000000	     -0.10000000	     -0.00000000	     -0.05000000	     -0.00000000	     -0.00000000	      0.00000000	     82.55408832	      7.95333916	      4.06221143	      0.17302394	     -3.98135063	      1.83816245	   -117.08383712	     17.31456011	     -0.00269013	      0.00610544	     -0.49511244	      0.00555532	     17.65124926	     -0.00076165	      0.02091387	      0.00862191	     -0.02436983	      0.00139948	     28.24694075	     -5.88589897	     -0.00000000	     -0.00000000	     -0.00000000	     -0.00000000	      0.05000000	      0.10000000	      0.05000000	      0.10000000	      0.05000000	      0.10000000	      0.05000000	      0.10000000
